<?xml version="1.0" encoding="UTF-8" standalone="no"?>
<!-- Created with Inkscape (http://www.inkscape.org/) -->

<svg
   xmlns:dc="http://purl.org/dc/elements/1.1/"
   xmlns:cc="http://creativecommons.org/ns#"
   xmlns:rdf="http://www.w3.org/1999/02/22-rdf-syntax-ns#"
   xmlns:svg="http://www.w3.org/2000/svg"
   xmlns="http://www.w3.org/2000/svg"
   xmlns:sodipodi="http://sodipodi.sourceforge.net/DTD/sodipodi-0.dtd"
   xmlns:inkscape="http://www.inkscape.org/namespaces/inkscape"
   width="30"
   height="30"
   viewBox="0 0 7.9375 7.9375"
   version="1.1"
   id="svg8"
   inkscape:version="0.92.3 (2405546, 2018-03-11)"
   sodipodi:docname="hide-password.svg"
   inkscape:export-filename="/home/celso/eclipse-workspace/hide-password.png"
   inkscape:export-xdpi="96"
   inkscape:export-ydpi="96">
  <defs
     id="defs2" />
  <sodipodi:namedview
     id="base"
     pagecolor="#ffffff"
     bordercolor="#666666"
     borderopacity="1.0"
     inkscape:pageopacity="0.0"
     inkscape:pageshadow="2"
     inkscape:zoom="7.8666667"
     inkscape:cx="-8.8733043"
     inkscape:cy="16.996972"
     inkscape:document-units="mm"
     inkscape:current-layer="layer1"
     showgrid="false"
     fit-margin-top="0"
     fit-margin-left="0"
     fit-margin-right="0"
     fit-margin-bottom="0"
     units="px"
     inkscape:window-width="1366"
     inkscape:window-height="703"
     inkscape:window-x="0"
     inkscape:window-y="0"
     inkscape:window-maximized="1"
     inkscape:snap-bbox="true"
     inkscape:bbox-nodes="true" />
  <metadata
     id="metadata5">
    <rdf:RDF>
      <cc:Work
         rdf:about="">
        <dc:format>image/svg+xml</dc:format>
        <dc:type
           rdf:resource="http://purl.org/dc/dcmitype/StillImage" />
        <dc:title></dc:title>
      </cc:Work>
    </rdf:RDF>
  </metadata>
  <g
     inkscape:label="Camada 1"
     inkscape:groupmode="layer"
     id="layer1"
     transform="translate(-16.884358,-190.96614)">
    <rect
       style="opacity:1;fill:#ffffff;fill-opacity:0;fill-rule:nonzero;stroke:none;stroke-width:0.6774193;stroke-linecap:round;stroke-linejoin:miter;stroke-miterlimit:4;stroke-dasharray:none;stroke-dashoffset:0;stroke-opacity:1;paint-order:normal"
       id="rect874"
       width="7.9375"
       height="7.9375"
       x="16.884357"
       y="190.96614" />
    <g
       id="g932"
       transform="matrix(0.11339286,0,0,0.11339286,6.4003062,176.76982)">
      <path
         inkscape:connector-curvature="0"
         style="opacity:1;fill:#000000;fill-opacity:1;fill-rule:nonzero;stroke:none;stroke-width:1.00157475;stroke-linecap:square;stroke-linejoin:miter;stroke-miterlimit:4;stroke-dasharray:none;stroke-dashoffset:0;stroke-opacity:1;paint-order:normal"
         d="m 481.72852,560.50195 a 44.951791,44.951791 0 0 0 -44.95118,44.95313 44.951791,44.951791 0 0 0 0.72461,7.67187 l 59.48438,-49.91015 a 44.951791,44.951791 0 0 0 -15.25781,-2.71485 z M 517.20703,578 448.52539,635.62695 a 44.951791,44.951791 0 0 0 33.20313,14.7793 44.951791,44.951791 0 0 0 44.95117,-44.95117 A 44.951791,44.951791 0 0 0 517.20703,578 Z"
         transform="scale(0.26458333)"
         id="circle823" />
      <path
         inkscape:connector-curvature="0"
         style="color:#000000;font-style:normal;font-variant:normal;font-weight:normal;font-stretch:normal;font-size:medium;line-height:normal;font-family:sans-serif;font-variant-ligatures:normal;font-variant-position:normal;font-variant-caps:normal;font-variant-numeric:normal;font-variant-alternates:normal;font-feature-settings:normal;text-indent:0;text-align:start;text-decoration:none;text-decoration-line:none;text-decoration-style:solid;text-decoration-color:#000000;letter-spacing:normal;word-spacing:normal;text-transform:none;writing-mode:lr-tb;direction:ltr;text-orientation:mixed;dominant-baseline:auto;baseline-shift:baseline;text-anchor:start;white-space:normal;shape-padding:0;clip-rule:nonzero;display:inline;overflow:visible;visibility:visible;opacity:1;isolation:auto;mix-blend-mode:normal;color-interpolation:sRGB;color-interpolation-filters:linearRGB;solid-color:#000000;solid-opacity:1;vector-effect:none;fill:#000000;fill-opacity:1;fill-rule:nonzero;stroke:none;stroke-width:26.45669365;stroke-linecap:square;stroke-linejoin:miter;stroke-miterlimit:4;stroke-dasharray:none;stroke-dashoffset:0;stroke-opacity:1;paint-order:normal;color-rendering:auto;image-rendering:auto;shape-rendering:auto;text-rendering:auto;enable-background:accumulate"
         d="m 481.72656,510.36914 c -16.42276,0 -32.84474,4.24609 -47.54687,12.73438 -29.40427,16.97654 -47.54496,48.39844 -47.54492,82.35156 v 13.22851 h 26.45507 v -13.22851 c -3e-5,-24.54346 13.06309,-47.17357 34.31836,-59.44531 21.25527,-12.27171 47.38145,-12.27171 68.63672,0 0.2852,0.16465 0.56347,0.33749 0.8457,0.50585 l 21.10547,-17.70703 c -2.78468,-2.04439 -5.691,-3.95475 -8.72265,-5.70507 -14.70214,-8.48829 -31.12407,-12.73438 -47.54688,-12.73438 z m 73.9668,35.33984 -20.26367,17.00196 c 9.51866,11.95841 14.93359,26.95225 14.93359,42.74414 v 13.22851 h 26.45703 v -13.22851 c 0,-22.07865 -7.67583,-43.08384 -21.12695,-59.7461 z"
         transform="scale(0.26458333)"
         id="path825" />
      <path
         inkscape:connector-curvature="0"
         style="fill:none;stroke:#000000;stroke-width:6.38378716;stroke-linecap:butt;stroke-linejoin:miter;stroke-miterlimit:4;stroke-dasharray:none;stroke-opacity:1"
         d="m 106.57886,182.14959 50.17095,-42.09843"
         id="path831" />
    </g>
  </g>
</svg>
