<?xml version="1.0" encoding="UTF-8" standalone="no"?>
<svg
   xmlns:dc="http://purl.org/dc/elements/1.1/"
   xmlns:cc="http://creativecommons.org/ns#"
   xmlns:rdf="http://www.w3.org/1999/02/22-rdf-syntax-ns#"
   xmlns:svg="http://www.w3.org/2000/svg"
   xmlns="http://www.w3.org/2000/svg"
   xmlns:sodipodi="http://sodipodi.sourceforge.net/DTD/sodipodi-0.dtd"
   xmlns:inkscape="http://www.inkscape.org/namespaces/inkscape"
   id="svg8"
   version="1.1"
   viewBox="0 0 4.2333332 4.2333335"
   height="16"
   width="16"
   sodipodi:docname="pallete.svg"
   inkscape:version="0.92.3 (2405546, 2018-03-11)"
   inkscape:export-filename="/home/celso/eclipse-workspace/scadabr-1.1.0-RC/WebContent/images/pallete.png"
   inkscape:export-xdpi="96"
   inkscape:export-ydpi="96">
  <sodipodi:namedview
     pagecolor="#ffffff"
     bordercolor="#666666"
     borderopacity="1"
     objecttolerance="10"
     gridtolerance="10"
     guidetolerance="10"
     inkscape:pageopacity="0"
     inkscape:pageshadow="2"
     inkscape:window-width="1366"
     inkscape:window-height="703"
     id="namedview12"
     showgrid="false"
     inkscape:zoom="14.75"
     inkscape:cx="-5.6949153"
     inkscape:cy="8"
     inkscape:window-x="0"
     inkscape:window-y="0"
     inkscape:window-maximized="1"
     inkscape:current-layer="svg8" />
  <defs
     id="defs2" />
  <metadata
     id="metadata5">
    <rdf:RDF>
      <cc:Work
         rdf:about="">
        <dc:format>image/svg+xml</dc:format>
        <dc:type
           rdf:resource="http://purl.org/dc/dcmitype/StillImage" />
        <dc:title />
      </cc:Work>
    </rdf:RDF>
  </metadata>
  <g
     id="g846"
     transform="translate(4.8023463e-6,-1.5096377e-5)">
    <path
       inkscape:connector-curvature="0"
       id="path826"
       d="M 1.5301367,0.33937861 C 0.75181772,0.56536079 0.17960991,1.2418179 0.16060039,2.0566277 0.15065517,2.4833218 0.3621585,2.8927377 0.71003083,3.0486405 0.89555082,3.1317797 1.2229611,3.1256931 1.3800953,3.276506 1.5190008,3.4098251 1.5506691,3.5604454 1.602199,3.6777946 1.6653792,3.8216735 1.7584416,3.9250784 2.0734285,3.9624957 3.1477064,4.0901128 4.0487411,3.1879628 4.0725781,2.1654221 4.0964149,1.1428816 3.2400079,0.28958439 2.159745,0.25954422 1.9403194,0.25344805 1.7285339,0.28177904 1.5301367,0.33937861 Z M 2.1851643,2.8453613 A 0.34294895,0.49980315 84.613832 0 1 2.317547,2.8219403 0.34294895,0.49980315 84.613832 0 1 2.8392629,3.1230723 0.34294895,0.49980315 84.613832 0 1 2.3648302,3.5063443 0.34294895,0.49980315 84.613832 0 1 1.8431314,3.2051887 0.34294895,0.49980315 84.613832 0 1 2.1851849,2.8454003 Z"
       style="opacity:1;fill:#e9b96e;fill-opacity:1;fill-rule:nonzero;stroke:#c17d11;stroke-width:0.21544205;stroke-linecap:round;stroke-linejoin:round;stroke-miterlimit:4;stroke-dasharray:none;stroke-dashoffset:0;stroke-opacity:1;paint-order:normal" />
    <ellipse
       ry="0.33397487"
       rx="0.30943337"
       transform="matrix(0.95974538,-0.28087152,0.23826588,0.97119996,0,0)"
       cy="2.2216074"
       cx="0.37425587"
       id="path816"
       style="opacity:1;fill:#fce94f;fill-opacity:1;fill-rule:nonzero;stroke:#c4a000;stroke-width:0.19021508;stroke-linecap:round;stroke-linejoin:round;stroke-miterlimit:4;stroke-dasharray:none;stroke-dashoffset:0;stroke-opacity:1;paint-order:normal" />
    <ellipse
       ry="0.33397487"
       rx="0.30943337"
       transform="matrix(0.95974538,-0.28087152,0.23826588,0.97119996,0,0)"
       style="opacity:1;fill:#73d216;fill-opacity:1;fill-rule:nonzero;stroke:#4e9a06;stroke-width:0.19021508;stroke-linecap:round;stroke-linejoin:round;stroke-miterlimit:4;stroke-dasharray:none;stroke-dashoffset:0;stroke-opacity:1;paint-order:normal"
       id="circle820"
       cx="1.1785609"
       cy="1.5497323" />
    <ellipse
       ry="0.33397487"
       rx="0.30943337"
       transform="matrix(0.95974538,-0.28087152,0.23826588,0.97119996,0,0)"
       cy="1.78754"
       cx="2.2205708"
       id="circle822"
       style="opacity:1;fill:#3465a4;fill-opacity:1;fill-rule:nonzero;stroke:#204a87;stroke-width:0.19021508;stroke-linecap:round;stroke-linejoin:round;stroke-miterlimit:4;stroke-dasharray:none;stroke-dashoffset:0;stroke-opacity:1;paint-order:normal" />
    <ellipse
       ry="0.33397487"
       rx="0.30943337"
       transform="matrix(0.95974538,-0.28087152,0.23826588,0.97119996,0,0)"
       style="opacity:1;fill:#ef2929;fill-opacity:1;fill-rule:nonzero;stroke:#cc0000;stroke-width:0.19021508;stroke-linecap:round;stroke-linejoin:round;stroke-miterlimit:4;stroke-dasharray:none;stroke-dashoffset:0;stroke-opacity:1;paint-order:normal"
       id="circle824"
       cx="2.8056209"
       cy="2.7561891" />
  </g>
</svg>
